<?xml version="1.0" encoding="utf-8"?>
<!-- Generator: Adobe Illustrator 22.1.0, SVG Export Plug-In . SVG Version: 6.00 Build 0)  -->
<svg version="1.1" id="Layer_1" xmlns="http://www.w3.org/2000/svg" xmlns:xlink="http://www.w3.org/1999/xlink" x="0px" y="0px"
	 viewBox="0 0 614 199" style="enable-background:new 0 0 614 199;" xml:space="preserve">
<title>logo</title>
<g id="Layer_1_1_">
	<path d="M51.4,87.1H41v23.4H30.7V56.2H41v21.9h10.4V56.2h10.2v54.3H51.4V87.1z"/>
	<path d="M85.3,55.3c11.9,0,16.9,12.1,16.9,28.1s-5,28.1-16.9,28.1S68.4,99.3,68.4,83.4S73.3,55.3,85.3,55.3z M85.3,64.4
		c-4.8,0-6.4,8.1-6.4,19c0,10.7,1.6,19,6.4,19s6.4-8.3,6.4-19C91.7,72.6,90.1,64.4,85.3,64.4z"/>
	<path d="M140.8,74.9l-9,35.5h-3.9L119,74.9v35.5h-10V56.2h13l7.8,31.2l8.1-31.2h12.7v54.3h-9.8L140.8,74.9z"/>
	<path d="M159.1,56.2h23.8v9h-13.5v13.1h12.9v9h-12.9v14.1h13.5v9h-23.8V56.2z"/>
	<path d="M277.4,167.6l7.8,12.3l-10.6,6.8l-6.8-10.6c-6.8,4.5-14.8,6.8-22.9,6.6c-30.6,0-47.7-28.8-47.7-65.2s17-65.2,47.7-65.2
		s47.8,28.8,47.8,65.3C292.8,137.9,287.5,155.9,277.4,167.6z M260.2,164.4l-14.6-22.5l10.8-6.8l12.3,19.3c5.7-9.3,8.5-22.3,8.5-36.9
		c0-29.1-11.4-51.8-32.4-51.8c-20.8,0-32.1,22.7-32.1,51.8c0,28.8,11.4,51.8,32.1,51.8C250.4,169.4,255.8,167.6,260.2,164.4z"/>
	<path d="M350.2,167.8c-5.5,7.9-15.1,14.9-26.5,14.9c-15.5,0-22.9-7.8-22.9-24.4V89.1h13.4v65.2c0,12.1,5.7,16.3,14.6,16.3
		c9.1,0,17.4-6.6,21.4-14.2V89.1h13.6v91.4h-13.6V167.8z"/>
	<path d="M371.1,134.7c0-25.7,12.9-47.8,37.1-47.8c24.6,0,37.3,22.1,37.3,47.8s-12.7,48-37.3,48
		C383.9,182.7,371.1,160.4,371.1,134.7z M431.2,134.7c0-18.3-7-35.8-23.1-35.8c-15.7,0-22.9,17.4-22.9,35.8
		c0,18.5,7.2,35.9,22.9,35.9C424.2,170.6,431.2,153.2,431.2,134.7z"/>
	<path d="M455.2,162.1V101h-12.1V89.1h12.1v-25h13.6v25h15.5V101h-15.5v58.6c0,7,2.1,11,7.4,11c3.1,0.1,6-1.3,8-3.6l4.2,10.2
		c-3.2,3.2-7.8,5.5-14.8,5.5C461.1,182.7,455.2,175.7,455.2,162.1z"/>
	<path d="M521.6,86.8c24,0,36.1,21.6,36.1,48.2v4.2h-59.2c0.6,18.4,10,32.2,26.3,32.2c7.9,0,16.1-4,21.8-11.2l7.2,8
		c-7.2,9.2-18.3,14.6-30.1,14.6c-24.4,0-39.1-20.1-39.1-48C484.5,108.2,498.5,86.8,521.6,86.8z M498.5,129.2h45.8
		c-0.2-14-6.2-31-22.9-31C505.3,98.2,498.9,115.8,498.5,129.2L498.5,129.2z"/>
	<path d="M564.3,89.1h13.4v14.6c5.9-9.6,14.8-16.4,25.9-16.4v14c-1.5-0.4-3-0.6-4.5-0.6c-8.3,0-17.6,7.4-21.4,14.9v64.9h-13.4V89.1z
		"/>
	<path d="M31.3,118h11.8v52h15.5v10.4H31.3V118z"/>
	<path d="M80.6,117c13.7,0,19.5,13.9,19.5,32.3s-5.8,32.3-19.5,32.3s-19.5-13.9-19.5-32.3S66.9,117,80.6,117z M80.6,127.5
		c-5.5,0-7.4,9.4-7.4,21.8c0,12.2,1.9,21.8,7.4,21.8s7.4-9.5,7.4-21.8C88,136.9,86.2,127.5,80.6,127.5L80.6,127.5z"/>
	<path d="M128.5,168.9h-12.9l-1.9,11.5h-11.5l13-62.4h13.6l13.1,62.4h-11.5L128.5,168.9z M117,158.6h10.1l-5-29.8L117,158.6z"/>
	<path d="M158.5,142.7v37.7h-11.7V118h11.8l12.1,35.8V118h11.7v62.4h-11.1L158.5,142.7z"/>
	<polygon points="200,54.7 105.8,23.7 12.1,54.7 8.9,45 105.8,13 203.2,45 	"/>
</g>
</svg>
